<mxfile host="app.diagrams.net" agent="Mozilla/5.0 (Windows NT 10.0; Win64; x64) AppleWebKit/537.36 (KHTML, like Gecko) Chrome/134.0.0.0 Safari/537.36" version="26.1.3">
  <diagram name="Page-1" id="2cc2dc42-3aac-f2a9-1cec-7a8b7cbee084">
    <mxGraphModel dx="1400" dy="707" grid="1" gridSize="10" guides="1" tooltips="1" connect="1" arrows="1" fold="1" page="1" pageScale="1" pageWidth="1100" pageHeight="850" background="none" math="0" shadow="0">
      <root>
        <mxCell id="0" />
        <mxCell id="1" parent="0" />
        <mxCell id="KSJD9GWjK2fySttAIIhZ-1" value="" style="rounded=0;whiteSpace=wrap;html=1;" vertex="1" parent="1">
          <mxGeometry x="40" y="40" width="1000" height="640" as="geometry" />
        </mxCell>
        <mxCell id="KSJD9GWjK2fySttAIIhZ-2" value="" style="rounded=0;whiteSpace=wrap;html=1;" vertex="1" parent="1">
          <mxGeometry x="40" y="40" width="1000" height="60" as="geometry" />
        </mxCell>
        <mxCell id="KSJD9GWjK2fySttAIIhZ-11" value="" style="shape=process;whiteSpace=wrap;html=1;backgroundOutline=1;size=0.35135135135135137;fillColor=none;" vertex="1" parent="1">
          <mxGeometry x="150" y="40" width="360" height="60" as="geometry" />
        </mxCell>
        <mxCell id="KSJD9GWjK2fySttAIIhZ-4" value="&lt;font style=&quot;font-size: 24px;&quot;&gt;Logo&lt;/font&gt;" style="text;html=1;align=center;verticalAlign=middle;whiteSpace=wrap;rounded=0;" vertex="1" parent="1">
          <mxGeometry x="40" y="40" width="110" height="60" as="geometry" />
        </mxCell>
        <mxCell id="KSJD9GWjK2fySttAIIhZ-5" value="" style="rounded=0;whiteSpace=wrap;html=1;fillColor=none;" vertex="1" parent="1">
          <mxGeometry x="40" y="100" width="1000" height="190" as="geometry" />
        </mxCell>
        <mxCell id="KSJD9GWjK2fySttAIIhZ-12" value="" style="shape=process;whiteSpace=wrap;html=1;backgroundOutline=1;fillColor=none;size=0.19230769230769232;" vertex="1" parent="1">
          <mxGeometry x="510" y="40" width="530" height="60" as="geometry" />
        </mxCell>
        <mxCell id="KSJD9GWjK2fySttAIIhZ-14" value="&lt;font style=&quot;font-size: 18px;&quot;&gt;About Us&lt;/font&gt;" style="text;html=1;align=center;verticalAlign=middle;whiteSpace=wrap;rounded=0;" vertex="1" parent="1">
          <mxGeometry x="275" y="40" width="120" height="60" as="geometry" />
        </mxCell>
        <mxCell id="KSJD9GWjK2fySttAIIhZ-15" value="&lt;font style=&quot;font-size: 18px;&quot;&gt;Products&lt;/font&gt;" style="text;html=1;align=center;verticalAlign=middle;whiteSpace=wrap;rounded=0;" vertex="1" parent="1">
          <mxGeometry x="395" y="40" width="120" height="60" as="geometry" />
        </mxCell>
        <mxCell id="KSJD9GWjK2fySttAIIhZ-16" value="&lt;font style=&quot;font-size: 18px;&quot;&gt;Services&lt;/font&gt;" style="text;html=1;align=center;verticalAlign=middle;whiteSpace=wrap;rounded=0;" vertex="1" parent="1">
          <mxGeometry x="507" y="39" width="110" height="60" as="geometry" />
        </mxCell>
        <mxCell id="KSJD9GWjK2fySttAIIhZ-17" value="&lt;font style=&quot;font-size: 18px;&quot;&gt;Contact Us&lt;/font&gt;" style="text;html=1;align=center;verticalAlign=middle;whiteSpace=wrap;rounded=0;" vertex="1" parent="1">
          <mxGeometry x="617" y="39" width="110" height="60" as="geometry" />
        </mxCell>
        <mxCell id="KSJD9GWjK2fySttAIIhZ-19" value="" style="endArrow=none;html=1;rounded=0;" edge="1" parent="1">
          <mxGeometry width="50" height="50" relative="1" as="geometry">
            <mxPoint x="733.67" y="99" as="sourcePoint" />
            <mxPoint x="733.67" y="39" as="targetPoint" />
          </mxGeometry>
        </mxCell>
        <mxCell id="KSJD9GWjK2fySttAIIhZ-31" value="Search" style="strokeWidth=1;shadow=0;dashed=0;align=center;html=1;shape=mxgraph.mockup.forms.searchBox;strokeColor=#999999;mainText=;strokeColor2=#008cff;fontColor=#666666;fontSize=17;align=left;spacingLeft=3;whiteSpace=wrap;" vertex="1" parent="1">
          <mxGeometry x="760" y="55" width="150" height="30" as="geometry" />
        </mxCell>
        <mxCell id="KSJD9GWjK2fySttAIIhZ-32" value="" style="html=1;verticalLabelPosition=bottom;align=center;labelBackgroundColor=#ffffff;verticalAlign=top;strokeWidth=6;strokeColor=default;shadow=0;dashed=0;shape=mxgraph.ios7.icons.most_viewed;pointerEvents=1;perimeterSpacing=0;" vertex="1" parent="1">
          <mxGeometry x="950" y="46.47" width="58.2" height="47.06" as="geometry" />
        </mxCell>
        <mxCell id="KSJD9GWjK2fySttAIIhZ-33" value="" style="whiteSpace=wrap;html=1;aspect=fixed;" vertex="1" parent="1">
          <mxGeometry x="135" y="310" width="180" height="180" as="geometry" />
        </mxCell>
        <mxCell id="KSJD9GWjK2fySttAIIhZ-34" value="&lt;h1 style=&quot;margin-top: 0px;&quot;&gt;Heading&lt;/h1&gt;&lt;p&gt;Lorem ipsum dolor sit amet, consectetur adipisicing elit, sed do eiusmod tempor incididunt ut labore et dolore magna aliqua.&lt;/p&gt;" style="text;html=1;whiteSpace=wrap;overflow=hidden;rounded=0;" vertex="1" parent="1">
          <mxGeometry x="135" y="510" width="180" height="120" as="geometry" />
        </mxCell>
        <mxCell id="KSJD9GWjK2fySttAIIhZ-35" value="&lt;h1 style=&quot;margin-top: 0px;&quot;&gt;Heading&lt;/h1&gt;&lt;p&gt;Lorem ipsum dolor sit amet, consectetur adipisicing elit, sed do eiusmod tempor incididunt ut labore et dolore magna aliqua.&lt;/p&gt;" style="text;html=1;whiteSpace=wrap;overflow=hidden;rounded=0;" vertex="1" parent="1">
          <mxGeometry x="345" y="510" width="180" height="120" as="geometry" />
        </mxCell>
        <mxCell id="KSJD9GWjK2fySttAIIhZ-36" value="" style="whiteSpace=wrap;html=1;aspect=fixed;" vertex="1" parent="1">
          <mxGeometry x="345" y="310" width="180" height="180" as="geometry" />
        </mxCell>
        <mxCell id="KSJD9GWjK2fySttAIIhZ-42" value="" style="whiteSpace=wrap;html=1;aspect=fixed;" vertex="1" parent="1">
          <mxGeometry x="555" y="310" width="180" height="180" as="geometry" />
        </mxCell>
        <mxCell id="KSJD9GWjK2fySttAIIhZ-43" value="&lt;h1 style=&quot;margin-top: 0px;&quot;&gt;Heading&lt;/h1&gt;&lt;p&gt;Lorem ipsum dolor sit amet, consectetur adipisicing elit, sed do eiusmod tempor incididunt ut labore et dolore magna aliqua.&lt;/p&gt;" style="text;html=1;whiteSpace=wrap;overflow=hidden;rounded=0;" vertex="1" parent="1">
          <mxGeometry x="555" y="510" width="180" height="120" as="geometry" />
        </mxCell>
        <mxCell id="KSJD9GWjK2fySttAIIhZ-44" value="" style="whiteSpace=wrap;html=1;aspect=fixed;" vertex="1" parent="1">
          <mxGeometry x="765" y="310" width="180" height="180" as="geometry" />
        </mxCell>
        <mxCell id="KSJD9GWjK2fySttAIIhZ-45" value="&lt;h1 style=&quot;margin-top: 0px;&quot;&gt;Heading&lt;/h1&gt;&lt;p&gt;Lorem ipsum dolor sit amet, consectetur adipisicing elit, sed do eiusmod tempor incididunt ut labore et dolore magna aliqua.&lt;/p&gt;" style="text;html=1;whiteSpace=wrap;overflow=hidden;rounded=0;" vertex="1" parent="1">
          <mxGeometry x="765" y="510" width="180" height="120" as="geometry" />
        </mxCell>
        <mxCell id="KSJD9GWjK2fySttAIIhZ-55" value="" style="rounded=0;whiteSpace=wrap;html=1;" vertex="1" parent="1">
          <mxGeometry x="120" y="120" width="830" height="140" as="geometry" />
        </mxCell>
        <mxCell id="KSJD9GWjK2fySttAIIhZ-56" value="&lt;font style=&quot;font-size: 72px;&quot;&gt;Hero Image&lt;/font&gt;" style="text;html=1;align=center;verticalAlign=middle;whiteSpace=wrap;rounded=0;" vertex="1" parent="1">
          <mxGeometry x="350" y="140" width="380" height="100" as="geometry" />
        </mxCell>
      </root>
    </mxGraphModel>
  </diagram>
</mxfile>
